<svg xmlns="http://www.w3.org/2000/svg" xmlns:xlink="http://www.w3.org/1999/xlink" version="1.1" x="0px" y="0px" viewBox="0 0 100 100" enable-background="new 0 0 100 100" xml:space="preserve"><path fill="#FFFFFF" d="M81.385,64.416H18.61c-0.972,0-1.764-0.793-1.764-1.768v-5.502c0-0.975,0.792-1.764,1.764-1.764h20.432  c1.768,1.871,5.274,5.379,6.824,5.379c1.636,0,12.284-3.465,12.507-5.379h23.012c0.977,0,1.769,0.789,1.769,1.764v5.502  C83.153,63.623,82.361,64.416,81.385,64.416z M17.423,48.461h65.343v3.463H17.423V48.461z M20.254,46.73  c-0.083-0.568-0.139-1.146-0.139-1.729c0-10.506,13.637-19.025,30.46-19.025c16.824,0,30.462,8.52,30.462,19.025  c0,0.584-0.057,1.16-0.138,1.729H20.254z M36.835,43.467c1.166,0,2.112-0.693,2.112-1.539s-0.946-1.535-2.112-1.535  c-1.167,0-2.117,0.689-2.117,1.535S35.666,43.467,36.835,43.467z M27.419,40.393c-0.85,0-1.537,0.514-1.537,1.152  c0,0.637,0.688,1.154,1.537,1.154c0.844,0,1.534-0.518,1.534-1.154C28.953,40.906,28.263,40.393,27.419,40.393z M31.454,37.508  c-0.955,0-1.732,0.602-1.732,1.344c0,0.744,0.777,1.348,1.732,1.348c0.957,0,1.729-0.604,1.729-1.348  C33.184,38.109,32.411,37.508,31.454,37.508z M32.224,41.348c-0.744,0-1.347,0.432-1.347,0.965c0,0.531,0.603,0.961,1.347,0.961  c0.741,0,1.343-0.428,1.343-0.961C33.566,41.781,32.965,41.348,32.224,41.348z M36.449,34.047c-1.486,0-2.69,0.861-2.69,1.922  c0,1.063,1.204,1.924,2.69,1.924c1.489,0,2.692-0.861,2.692-1.924C39.142,34.908,37.938,34.047,36.449,34.047z M61.239,39.619  c0,0.85,1.036,1.539,2.308,1.539s2.309-0.689,2.309-1.539c0-0.848-1.037-1.535-2.309-1.535S61.239,38.771,61.239,39.619z   M65.855,34.24c-0.426,0-0.771,0.689-0.771,1.537s0.344,1.537,0.771,1.537c0.423,0,0.767-0.689,0.767-1.537  C66.622,34.928,66.28,34.24,65.855,34.24z M69.894,38.852c-0.853,0-1.541,0.947-1.541,2.115s0.69,2.117,1.541,2.117  c0.844,0,1.534-0.949,1.534-2.117S70.737,38.852,69.894,38.852z M80.462,65.566c0,0,2.883,8.457-10.572,8.457  c-13.457,0-40.745,0-40.745,0s-10.956-0.771-8.839-7.691L80.462,65.566z"/></svg>
